# xmcd
#
# Track frame offsets:
#	150
#	14899
#	27822
#	42907
#	57741
#	74674
#	95088
#	108553
#	120418
#	131179
#	147763
#	164083
#	183498
#	197756
#	213131
#	224531
#	239331
#	256071
#
# Disc length: 3687 seconds
#
# Revision: 1
# Processed by: cddbd v1.5.2PL0 Copyright (c) Steve Scherf et al.
# Submitted via: audiograbber 1.83.01
#
DISCID=1f0e6512
DTITLE=T. Jae Christian - Tre time Volume 2 
DYEAR=1999
DGENRE=
TTITLE0=Dan Harrell - Bad Ol Used To Be´s
TTITLE1=Dan Harrell - Betwine A Rock And Hard Place
TTITLE2=Dan Harrell - Marlene
TTITLE3=Dan Harrell - Homer Jones
TTITLE4=Dan Harrell - I Hate Loving You
TTITLE5=Kelly Wolf - Threaten Dark Clouds
TTITLE6=Kelly Wolf - Long Long Ride
TTITLE7=Kelly Wolf - Somtimes You Just Can´t Win
TTITLE8=Kelly Wolf - It´ll Do You Good To Be Blue
TTITLE9=Kelly Wolf - Johnny One Time
TTITLE10=T Jae Christian - It Should Have Been Me
TTITLE11=T Jae Christian - Tribute To A Freind
TTITLE12=T Jae Christian - The Easy Way Out
TTITLE13=T Jae Christian - All Her Love´s Gone
TTITLE14=T Jae Christian - I Love How She´s Driving Me Sane
TTITLE15=Kim Gunnell - Big Bad Wolf
TTITLE16=Kim Gunnell - Lord I Hope This Day Is Good
TTITLE17=Kim Gunnell - Rockabilly Moon
EXTD=
EXTT0=
EXTT1=
EXTT2=
EXTT3=
EXTT4=
EXTT5=
EXTT6=
EXTT7=
EXTT8=
EXTT9=
EXTT10=
EXTT11=
EXTT12=
EXTT13=
EXTT14=
EXTT15=
EXTT16=
EXTT17=
PLAYORDER=
